<svg xmlns="http://www.w3.org/2000/svg" viewBox="0 0 640 320">
  <defs>
    <linearGradient id="bg" x2="1" y2="1"><stop stop-color="#e4f3f5"/><stop offset="1" stop-color="#aad7dc"/></linearGradient>
    <pattern id="closed" width="30" height="30" patternUnits="userSpaceOnUse"><rect x="1" y="1" width="28" height="28" rx="3" fill="#83acba" stroke="#587f8c"/></pattern>
    <pattern id="open" width="30" height="30" patternUnits="userSpaceOnUse"><rect x="1" y="1" width="28" height="28" rx="3" fill="#e9f4f0" stroke="#aec9c7"/></pattern>
  </defs>
  <path fill="url(#bg)" d="M0 0h640v320H0z"/><circle cx="100" cy="250" r="110" fill="#fff" opacity=".16"/><circle cx="553" cy="78" r="92" fill="#fff" opacity=".18"/>
  <rect x="185" y="26" width="270" height="270" rx="13" fill="#467e8a" opacity=".2"/>
  <path fill="url(#closed)" d="M200 41h240v240H200z"/>
  <path fill="url(#open)" d="M200 41h120v150H200zm120 30h60v120h-60zm60 60h60v120h-60zm-180 60h150v90H200z"/>
  <g font-family="Arial,sans-serif" font-size="22" font-weight="800" text-anchor="middle" dominant-baseline="middle">
    <text x="245" y="86" fill="#2b6db2">1</text><text x="275" y="86" fill="#2b6db2">1</text><text x="305" y="116" fill="#23845a">2</text>
    <text x="245" y="146" fill="#23845a">2</text><text x="275" y="146" fill="#b35647">3</text><text x="335" y="146" fill="#2b6db2">1</text>
    <text x="305" y="176" fill="#2b6db2">1</text><text x="365" y="176" fill="#23845a">2</text><text x="395" y="206" fill="#b35647">3</text>
    <text x="245" y="236" fill="#2b6db2">1</text><text x="305" y="236" fill="#23845a">2</text><text x="335" y="266" fill="#2b6db2">1</text>
  </g>
  <path d="M350 77v-25m0 1 19 7-19 8" fill="#ed625e" stroke="#34494d" stroke-width="3" stroke-linejoin="round"/>
  <path d="M290 199v-25m0 1 19 7-19 8" fill="#ed625e" stroke="#34494d" stroke-width="3" stroke-linejoin="round"/>
  <path d="M410 109v-25m0 1 19 7-19 8" fill="#ed625e" stroke="#34494d" stroke-width="3" stroke-linejoin="round"/>
</svg>
